<?xml version="1.0" encoding="utf-8"?>
<!-- Generator: Adobe Illustrator 16.0.0, SVG Export Plug-In . SVG Version: 6.00 Build 0)  -->
<!DOCTYPE svg PUBLIC "-//W3C//DTD SVG 1.1//EN" "http://www.w3.org/Graphics/SVG/1.1/DTD/svg11.dtd">
<svg version="1.1" id="图层_1" xmlns="http://www.w3.org/2000/svg" xmlns:xlink="http://www.w3.org/1999/xlink" x="0px" y="0px"
	 width="200px" height="43px" viewBox="0 0 200 43" enable-background="new 0 0 200 43" xml:space="preserve">
<path fill-rule="evenodd" clip-rule="evenodd" fill="#00B0F0" d="M0.574,3.304c0.394-0.886,1.068-1.233,2.042-1.231
	c10.011,0.018,20.022,0.011,30.033,0.012c0.181,0,0.364-0.007,0.542,0.018c0.824,0.114,1.431,0.825,1.413,1.644
	c-0.018,0.793-0.615,1.469-1.415,1.572c-0.267,0.035-0.542,0.019-0.813,0.019c-9.333,0-18.667,0-27.999,0
	c-1.666,0-2.176,0.515-2.176,2.191c0,10.87,0,21.739,0,32.61c0,0.269,0,0.538,0,0.826c-0.831,0.036-1.252-0.472-1.627-1.05
	C0.574,27.711,0.574,15.508,0.574,3.304z"/>
<path fill-rule="evenodd" clip-rule="evenodd" fill="#FFC000" d="M177.858,21.651c-0.398,0-0.665,0-0.933,0
	c-2.485-0.001-4.97,0.002-7.457-0.002c-0.605-0.001-1.087-0.424-1.099-0.944c-0.012-0.546,0.489-1.002,1.115-1.002
	c3.819-0.002,7.639-0.001,11.457-0.001c0.246,0,0.491,0,0.791,0c-0.221-1.331-0.433-2.594-0.649-3.886c-4.572,0-9.102,0-13.709,0
	c0,1.429-0.035,2.845,0.004,4.258c0.183,6.621-0.842,13.047-3.078,19.278c-0.119,0.328-0.451,0.67-0.77,0.809
	c-0.268,0.117-0.796,0.066-0.966-0.125c-0.224-0.254-0.358-0.756-0.272-1.084c0.494-1.874,1.116-3.716,1.596-5.594
	c1.072-4.196,1.609-8.461,1.554-12.803c-0.04-3.186-0.009-6.371-0.005-9.558c0-0.451-0.013-0.909,0.052-1.353
	c0.274-1.826,1.447-2.915,3.315-2.942c3.546-0.054,7.094-0.037,10.642-0.049c0.271-0.001,0.54,0,0.902,0
	c-0.094-0.208-0.146-0.368-0.232-0.505c-0.541-0.86-1.088-1.717-1.635-2.573c-0.406-0.631-0.388-1.172,0.058-1.495
	c0.457-0.331,1.454-0.189,1.76,0.313c0.736,1.214,1.456,2.44,2.127,3.69c0.221,0.411,0.436,0.583,0.918,0.582
	c3.773-0.01,7.546-0.021,11.319,0.035c2.277,0.034,3.375,1.226,3.378,3.493c0.001,0.723,0.001,1.446,0,2.169
	c-0.007,2.271-1.135,3.416-3.426,3.422c-3.593,0.011-7.187-0.002-10.777-0.006c-0.245,0-0.486,0-0.744,0
	c0.192,1.249,0.359,2.431,0.572,3.605c0.025,0.13,0.305,0.297,0.472,0.304c0.882,0.03,1.763,0.014,2.644,0.014
	c3.999,0,7.999,0,11.999,0c0.689,0,1.216,0.421,1.22,0.971c0.005,0.55-0.519,0.978-1.212,0.978
	c-6.033,0.001-12.066,0.012-18.099-0.016c-0.69-0.003-0.991,0.124-1.049,0.885c-0.09,1.212-0.327,2.411-0.516,3.701
	c0.294,0,0.536,0,0.778,0c4.271,0,8.541-0.026,12.812,0.019c1.002,0.01,2.027,0.162,2.996,0.417
	c0.959,0.254,1.591,0.973,1.652,2.012c0.14,2.443,0.076,4.881-0.597,7.258c-0.406,1.433-1.076,2.724-2.299,3.664
	c-1.139,0.876-2.485,1.03-3.844,1.096c-2.854,0.136-5.574-0.355-8.084-1.794c-0.616-0.351-0.846-1.023-0.536-1.582
	c0.31-0.56,0.918-0.71,1.553-0.368c2.29,1.231,4.706,1.904,7.337,1.788c1.66-0.073,2.741-0.902,3.456-2.318
	c0.746-1.484,0.927-3.102,1.05-4.729c0.037-0.494,0.037-0.992,0.03-1.49c-0.015-1.119-0.577-1.768-1.687-1.923
	c-0.425-0.062-0.856-0.08-1.285-0.08c-4.315-0.005-8.632,0.007-12.946-0.016c-0.539-0.004-0.777,0.151-0.962,0.671
	c-1.274,3.59-3.131,6.805-6.167,9.219c-1.318,1.05-2.775,1.853-4.371,2.4c-0.491,0.171-1.145-0.049-1.259-0.467
	c-0.144-0.52,0.075-0.952,0.564-1.161c6.097-2.595,8.949-7.561,10.072-13.781C177.586,23.971,177.693,22.869,177.858,21.651z
	 M167.428,13.796c0.14,0.015,0.271,0.041,0.401,0.041c8.76,0.01,17.52,0.024,26.28,0.023c1.307,0,1.985-0.726,1.999-2.04
	c0.004-0.338-0.001-0.677,0-1.016c0.01-1.379-0.576-2.041-1.942-2.178c-0.27-0.027-0.542-0.024-0.813-0.024
	c-7.745-0.001-15.489-0.002-23.233,0c-0.315,0-0.636-0.005-0.945,0.041c-1.043,0.155-1.637,0.655-1.726,1.688
	C167.354,11.468,167.428,12.617,167.428,13.796z"/>
<path fill-rule="evenodd" clip-rule="evenodd" fill="#00B0F0" d="M67.599,30.54c0.348-0.135,0.695-0.231,1.005-0.397
	c0.564-0.301,0.958-0.125,1.221,0.398c0.225,0.449-0.052,1.191-0.513,1.388c-0.372,0.16-0.76,0.297-1.154,0.389
	c-0.469,0.108-0.632,0.338-0.623,0.84c0.033,1.896,0.014,3.796,0.012,5.693c-0.001,0.673-0.458,1.205-1.009,1.184
	c-0.532-0.021-0.97-0.539-0.972-1.167c-0.003-1.604-0.001-3.208-0.001-4.812c0-0.246,0-0.491,0-0.833
	c-0.311,0.093-0.541,0.152-0.765,0.23c-3.028,1.04-6.056,2.085-9.084,3.127c-0.691,0.237-1.224,0.115-1.413-0.326
	c-0.173-0.401,0.212-1.242,0.685-1.496c0.04-0.021,0.083-0.043,0.125-0.051c1.211-0.192,1.36-0.951,1.354-2.06
	c-0.05-8.992-0.028-17.984-0.028-26.978c0-0.266,0-0.532,0-0.874c-0.542,0-1.032,0.004-1.522-0.001
	c-0.596-0.007-1.062-0.441-1.059-0.978c0.003-0.541,0.46-0.958,1.08-0.959c4.722-0.003,9.444-0.002,14.167-0.001
	c0.09,0,0.181-0.003,0.27,0.009c0.538,0.075,1.126,0.585,1.059,0.978c-0.101,0.589-0.559,0.874-1.097,0.936
	c-0.556,0.064-1.125,0.015-1.738,0.015C67.599,13.378,67.599,21.926,67.599,30.54z M65.565,24.406c-2.403,0-4.736,0-7.109,0
	c0,3.023,0,6.008,0,8.984c0.071,0.013,0.097,0.025,0.116,0.021c2.234-0.694,4.471-1.38,6.697-2.099
	c0.139-0.045,0.274-0.333,0.282-0.514c0.032-0.722,0.014-1.444,0.014-2.166C65.565,27.238,65.565,25.845,65.565,24.406z
	 M58.45,12.593c2.379,0,4.714,0,7.076,0c0-2.608,0-5.17,0-7.76c-2.376,0-4.714,0-7.076,0C58.45,7.433,58.45,9.996,58.45,12.593z
	 M65.521,22.394c0-2.616,0-5.178,0-7.764c-2.379,0-4.713,0-7.069,0c0,2.611,0,5.172,0,7.764
	C60.817,22.394,63.136,22.394,65.521,22.394z"/>
<path fill-rule="evenodd" clip-rule="evenodd" fill="#92D050" d="M120.114,14.282c0.337,0.908,0.642,1.725,0.961,2.582
	c2.953,0,5.911-0.007,8.869,0.011c0.293,0.001,0.661,0.071,0.859,0.254c0.231,0.215,0.514,0.678,0.425,0.873
	c-0.155,0.339-0.563,0.581-0.899,0.809c-0.124,0.084-0.353,0.019-0.533,0.019c-6.711,0-13.421,0-20.132,0c-0.067,0-0.136,0-0.204,0
	c-0.69-0.009-1.324-0.501-1.298-1.008c0.024-0.492,0.637-0.957,1.283-0.957c2.938-0.003,5.874-0.001,8.813-0.001
	c0.24,0,0.482,0,0.821,0c-0.316-0.843-0.581-1.607-0.902-2.346c-0.061-0.137-0.353-0.239-0.539-0.241
	c-1.288-0.017-2.577-0.009-3.863,0.005c-1.843,0.019-2.783-0.836-2.821-2.688c-0.04-2.01-0.041-4.022-0.002-6.031
	c0.037-1.924,0.98-2.919,2.916-3.02c1.576-0.082,3.16-0.037,4.742-0.041c2.033-0.005,4.066-0.001,6.102-0.001
	c0.157,0,0.315-0.001,0.474,0.004c1.995,0.057,3.53,0.555,3.386,3.468c-0.09,1.848-0.014,3.705-0.006,5.558
	c0.009,1.822-0.932,2.761-2.751,2.754C123.941,14.276,122.068,14.282,120.114,14.282z M126.53,9.425c-4.575,0-9.083,0-13.66,0
	c0,0.236-0.001,0.435,0,0.633c0.008,1.49,0.301,2.539,2.244,2.236c0.022-0.003,0.045,0,0.068,0c3.319,0.022,6.641,0.041,9.96,0.068
	c0.925,0.008,1.467-0.407,1.472-1.208C126.618,10.595,126.563,10.034,126.53,9.425z M126.529,7.363
	c0.034-0.481,0.071-0.885,0.087-1.291c0.033-0.824-0.406-1.378-1.231-1.521c-0.332-0.057-0.675-0.064-1.013-0.064
	c-3.073-0.004-6.146-0.004-9.22-0.001c-0.293,0-0.59,0.006-0.878,0.049c-0.637,0.095-1.117,0.449-1.263,1.073
	c-0.128,0.555-0.121,1.141-0.177,1.755C117.466,7.363,121.975,7.363,126.529,7.363z"/>
<path fill-rule="evenodd" clip-rule="evenodd" fill="#00B0F0" d="M37.863,2.119c1.148,0.126,1.617,0.646,1.617,1.733
	c0.001,11.005,0,22.01,0.001,33.014c0,0.768,0.012,1.537,0.007,2.304c-0.006,1.16-0.651,1.827-1.789,1.827
	c-10.146,0.004-20.292,0.004-30.438,0c-1.047,0-1.799-0.686-1.801-1.614c-0.003-0.945,0.764-1.626,1.862-1.626
	c9.355-0.004,18.71-0.003,28.065-0.003c0.226,0,0.452,0.004,0.677-0.001c1.152-0.024,1.794-0.666,1.796-1.823
	c0.005-4.091,0.002-8.182,0.002-12.271c0-6.915,0-13.83,0-20.744C37.863,2.651,37.863,2.388,37.863,2.119z"/>
<path fill-rule="evenodd" clip-rule="evenodd" fill="#00B0F0" d="M90.378,13.609c0,2.215,0.001,4.428-0.001,6.644
	c0,0.315-0.008,0.633-0.035,0.947c-0.141,1.658-1.07,2.531-2.741,2.535c-3.978,0.009-7.955,0.003-11.932,0.003
	c-0.338,0-0.678-0.003-1.017,0.001c-2.083,0.025-3.129-0.908-3.15-3.006c-0.047-4.632-0.057-9.265-0.019-13.897
	c0.018-2.205,1.251-3.324,3.553-3.35c2.146-0.025,4.293-0.014,6.439-0.003c2.078,0.01,4.158-0.009,6.233,0.078
	c1.858,0.077,2.677,1.026,2.67,2.862C90.373,8.819,90.378,11.214,90.378,13.609z M88.447,13.592c0-2.191,0.001-4.382,0-6.574
	c0-0.825-0.326-1.271-1.126-1.452c-0.37-0.083-0.761-0.097-1.142-0.098c-2.688-0.007-5.376-0.005-8.065-0.003
	c-0.994,0-1.989-0.02-2.981,0.016c-1.002,0.037-1.533,0.536-1.687,1.516c-0.038,0.244-0.045,0.495-0.045,0.743
	c-0.003,3.93-0.004,7.861,0.001,11.792c0,0.314,0.025,0.634,0.081,0.942c0.177,0.992,0.642,1.321,1.631,1.315
	c3.84-0.02,7.68-0.028,11.52-0.012c1.318,0.006,1.817-0.437,1.816-1.747C88.447,17.884,88.449,15.738,88.447,13.592z"/>
<path fill-rule="evenodd" clip-rule="evenodd" fill="#00B0F0" d="M30.367,11.972c-0.745,0-1.491,0.017-2.235-0.004
	c-0.923-0.026-1.562,0.335-2.038,1.16c-4.201,7.291-8.427,14.566-12.647,21.845c-0.136,0.233-0.266,0.473-0.421,0.693
	c-0.496,0.704-1.354,0.917-2.092,0.529c-0.752-0.397-1.056-1.277-0.712-2.093c0.087-0.206,0.207-0.401,0.32-0.596
	c4.593-7.922,9.19-15.844,13.776-23.771c0.375-0.647,0.882-1.007,1.63-1.008c2.281-0.002,4.562-0.01,6.842,0.004
	c0.906,0.006,1.499,0.417,1.727,1.148c0.211,0.679,0.039,1.296-0.525,1.688c-0.345,0.24-0.826,0.354-1.256,0.386
	C31.951,12.015,31.157,11.972,30.367,11.972z"/>
<path fill-rule="evenodd" clip-rule="evenodd" fill="#92D050" d="M121.385,28.94c0,2.43-0.045,4.756,0.011,7.08
	c0.072,2.956-1.071,4.149-4.04,4.04c-0.672-0.024-1.345-0.145-2.01-0.259c-0.65-0.111-1.146-0.817-0.993-1.354
	c0.134-0.474,0.869-0.739,1.484-0.584c0.608,0.155,1.227,0.333,1.848,0.364c1.031,0.052,1.663-0.5,1.682-1.521
	c0.043-2.551,0.014-5.103,0.014-7.694c-0.166-0.027-0.315-0.068-0.462-0.068c-1.717,0-3.434-0.008-5.15,0.014
	c-1.653,0.022-2.655-0.806-2.805-2.457c-0.075-0.829-0.071-1.674-0.01-2.505c0.114-1.524,1.182-2.487,2.831-2.518
	c2.302-0.045,4.607-0.024,6.912-0.025c1.694,0,3.389-0.009,5.082,0.029c0.487,0.011,0.989,0.115,1.453,0.272
	c0.898,0.303,1.324,0.948,1.33,1.904c0.006,0.994-0.008,1.989,0.003,2.981c0.018,1.596-0.739,2.337-2.38,2.323
	c-1.424-0.012-2.847-0.016-4.27-0.023C121.762,28.94,121.609,28.94,121.385,28.94z M119.967,27.028c0-0.001,0-0.001,0-0.002
	c1.873,0,3.745-0.002,5.618,0.001c0.694,0.001,1.024-0.305,1.043-1.034c0.01-0.381-0.068-0.765-0.056-1.146
	c0.035-1.032-0.19-1.321-1.211-1.438c-0.268-0.031-0.541-0.025-0.811-0.026c-3.115-0.001-6.23-0.007-9.344,0.006
	c-0.471,0.002-0.949,0.05-1.406,0.155c-0.56,0.129-0.894,0.523-0.916,1.113c-0.015,0.381-0.01,0.77,0.048,1.146
	c0.131,0.873,0.59,1.229,1.483,1.228C116.266,27.025,118.115,27.028,119.967,27.028z"/>
<path fill-rule="evenodd" clip-rule="evenodd" fill="#92D050" d="M146.896,25.003c-0.136,0.305-0.192,0.498-0.299,0.661
	c-3.794,5.78-8.717,10.328-14.839,13.564c-0.512,0.271-1.206,0.125-1.459-0.285c-0.245-0.398-0.042-1.297,0.368-1.602
	c0.09-0.066,0.194-0.113,0.294-0.167c5.58-3.002,10.091-7.186,13.688-12.379c0.179-0.257,0.338-0.599,0.592-0.715
	c0.295-0.137,0.779-0.208,1.011-0.055C146.56,24.23,146.7,24.683,146.896,25.003z"/>
<path fill-rule="evenodd" clip-rule="evenodd" fill="#92D050" d="M6.504,8.712c1.488,0,2.979-0.062,4.459,0.039
	c0.43,0.03,0.981,0.435,1.215,0.824c1.66,2.766,3.26,5.568,4.863,8.368c0.518,0.903,0.299,1.834-0.49,2.308
	c-0.833,0.499-1.738,0.247-2.292-0.697c-1.588-2.704-3.174-5.41-4.72-8.139C8.831,10.167,7.919,9.208,6.504,8.712z"/>
<path fill-rule="evenodd" clip-rule="evenodd" fill="#92D050" d="M145.228,13.312c-0.041,0.097-0.11,0.363-0.257,0.577
	c-3.335,4.907-7.589,8.803-12.827,11.607c-0.581,0.312-1.301,0.163-1.55-0.313c-0.254-0.483,0.04-1.321,0.561-1.646
	c1.474-0.918,2.987-1.779,4.403-2.779c3.038-2.143,5.545-4.818,7.632-7.896c0.201-0.299,0.575-0.57,0.922-0.665
	C144.813,12.005,145.234,12.406,145.228,13.312z"/>
<path fill-rule="evenodd" clip-rule="evenodd" fill="#00B0F0" d="M83.41,27.185c0.259-0.324,0.447-0.762,0.772-0.918
	c0.437-0.208,0.9-0.042,1.242,0.399c2.796,3.601,5.405,7.328,7.641,11.308c0.339,0.604,0.239,1.367-0.211,1.625
	c-0.466,0.269-1.364-0.026-1.708-0.559c-1.715-2.646-3.418-5.304-5.153-7.938c-0.694-1.053-1.469-2.054-2.191-3.09
	C83.655,27.804,83.579,27.549,83.41,27.185z"/>
<path fill-rule="evenodd" clip-rule="evenodd" fill="#92D050" d="M142.961,3.792c-0.076,0.15-0.186,0.494-0.393,0.762
	c-2.489,3.218-5.72,5.539-9.202,7.55c-0.39,0.225-0.788,0.438-1.187,0.648c-0.597,0.315-1.302,0.192-1.568-0.266
	c-0.289-0.496,0.011-1.36,0.575-1.683c1.176-0.669,2.371-1.305,3.516-2.022c2.426-1.521,4.582-3.353,6.353-5.628
	c0.24-0.308,0.75-0.521,1.155-0.561C142.853,2.53,142.908,3.088,142.961,3.792z"/>
<path fill-rule="evenodd" clip-rule="evenodd" fill="#00B0F0" d="M69.304,39.52c-0.989-0.118-1.289-0.556-0.922-1.42
	c0.12-0.282,0.317-0.545,0.526-0.775c2.781-3.045,5.049-6.418,6.618-10.244c0.221-0.542,1.061-0.891,1.571-0.676
	c0.452,0.189,0.698,0.883,0.443,1.48c-0.415,0.976-0.84,1.949-1.34,2.882c-1.635,3.043-3.71,5.771-6.08,8.274
	C69.913,39.262,69.579,39.364,69.304,39.52z"/>
<path fill-rule="evenodd" clip-rule="evenodd" fill="#FFC000" d="M21.7,23.957c0.741-1.309,1.43-2.647,2.253-3.9
	c0.222-0.34,0.841-0.575,1.285-0.588c2.032-0.062,4.066-0.039,6.101-0.022c0.94,0.008,1.626,0.72,1.638,1.634
	c0.012,0.953-0.664,1.642-1.67,1.65c-1.83,0.015-3.661,0.03-5.491-0.004c-1.494-0.026-2.888,0.182-3.991,1.337
	C21.785,24.027,21.742,23.992,21.7,23.957z"/>
<path fill-rule="evenodd" clip-rule="evenodd" fill="#92D050" d="M124.916,30.284c0.315,0.237,0.761,0.406,0.927,0.724
	c0.994,1.889,1.939,3.804,2.864,5.728c0.307,0.641,0.112,1.304-0.33,1.488c-0.37,0.156-1.319-0.209-1.532-0.631
	c-0.948-1.866-1.903-3.729-2.806-5.62C123.648,31.159,124.058,30.432,124.916,30.284z"/>
<path fill-rule="evenodd" clip-rule="evenodd" fill="#92D050" d="M110.829,38.076c-0.347-0.246-0.75-0.386-0.787-0.592
	c-0.074-0.399-0.076-0.926,0.129-1.246c0.483-0.755,1.166-1.381,1.655-2.132c0.552-0.847,0.991-1.765,1.455-2.665
	c0.298-0.579,0.834-0.868,1.339-0.662c0.491,0.201,0.707,0.84,0.375,1.45c-0.763,1.403-1.574,2.778-2.387,4.153
	c-0.205,0.348-0.451,0.687-0.741,0.964C111.583,37.62,111.218,37.811,110.829,38.076z"/>
</svg>
